<svg width="55" height="9" viewBox="0 0 55 9" fill="none" xmlns="http://www.w3.org/2000/svg">
<path d="M0.000246386 8.08203L2.74393 0.128554H4.62287L7.36655 8.08203H5.78653L5.22072 6.3739H2.14608L1.56959 8.08203H0.000246386ZM2.56244 5.09281H4.80436L3.48056 1.13208H3.88624L2.56244 5.09281ZM11.7985 8.21014C11.2291 8.21014 10.7025 8.10694 10.2185 7.90054C9.74164 7.69414 9.32173 7.4059 8.95875 7.0358C8.60289 6.66571 8.32532 6.23156 8.12604 5.73335C7.92676 5.23515 7.82711 4.69068 7.82711 4.09995C7.82711 3.50923 7.9232 2.96476 8.11536 2.46656C8.31464 1.96124 8.59221 1.52709 8.94807 1.16411C9.31105 0.794013 9.73453 0.509325 10.2185 0.310043C10.7025 0.103644 11.2291 0.000445041 11.7985 0.000445041C12.3679 0.000445041 12.8768 0.0965273 13.3252 0.288692C13.7807 0.480857 14.165 0.737076 14.4781 1.05735C14.7913 1.37051 15.0155 1.71569 15.1507 2.0929L13.8483 2.70142C13.6988 2.30286 13.4461 1.97547 13.0903 1.71925C12.7344 1.45591 12.3038 1.32425 11.7985 1.32425C11.3003 1.32425 10.859 1.44168 10.4747 1.67655C10.0975 1.91141 9.80214 2.23525 9.58862 2.64805C9.38222 3.06084 9.27902 3.54481 9.27902 4.09995C9.27902 4.6551 9.38222 5.14263 9.58862 5.56254C9.80214 5.97534 10.0975 6.29917 10.4747 6.53404C10.859 6.76891 11.3003 6.88634 11.7985 6.88634C12.3038 6.88634 12.7344 6.75823 13.0903 6.50201C13.4461 6.23868 13.6988 5.90773 13.8483 5.50916L15.1507 6.11768C15.0155 6.49489 14.7913 6.84364 14.4781 7.16391C14.165 7.47707 13.7807 7.72973 13.3252 7.92189C12.8768 8.11406 12.3679 8.21014 11.7985 8.21014ZM16.4629 8.08203V0.128554H17.9148V3.59819H21.2991V0.128554H22.7617V8.08203H21.2991V4.87929H17.9148V8.08203H16.4629ZM24.426 8.08203V0.128554H25.8779V8.08203H24.426ZM27.5412 8.08203V0.128554H32.8257V1.40965H28.9931V3.44873H32.6122V4.72983H28.9931V6.80093H32.8257V8.08203H27.5412ZM36.1483 8.08203L33.3726 0.128554H34.9526L37.1305 6.71553H36.8209L38.9987 0.128554H40.5787L37.8137 8.08203H36.1483ZM41.6011 8.08203V0.128554H46.8856V1.40965H43.053V3.44873H46.6721V4.72983H43.053V6.80093H46.8856V8.08203H41.6011ZM48.0837 8.08203V0.128554H51.0409C51.5819 0.128554 52.0587 0.228195 52.4715 0.427478C52.8914 0.619642 53.2188 0.90433 53.4537 1.28154C53.6885 1.65164 53.806 2.10358 53.806 2.63737C53.806 3.18539 53.6743 3.65157 53.411 4.0359C53.1548 4.42023 52.806 4.70492 52.3647 4.88996L54.1903 8.08203H52.5462L50.5926 4.59104L51.532 5.14618H49.5357V8.08203H48.0837ZM49.5357 3.86509H51.0623C51.3256 3.86509 51.5534 3.81527 51.7456 3.71563C51.9377 3.60887 52.0872 3.46297 52.1939 3.27792C52.3007 3.09287 52.3541 2.87935 52.3541 2.63737C52.3541 2.38827 52.3007 2.17475 52.1939 1.99682C52.0872 1.81177 51.9377 1.66943 51.7456 1.56979C51.5534 1.46303 51.3256 1.40965 51.0623 1.40965H49.5357V3.86509Z" fill="black" fill-opacity="0.7"/>
</svg>
