<svg width="34" height="20" viewBox="0 0 34 20" fill="none" xmlns="http://www.w3.org/2000/svg">
<path d="M0 8.60938C4.9738 7.30784 9.09332 5.2407 12.301 2.2225L13.7912 4.82492L3.61448 10.7488L0 8.60938Z" fill="url(#paint0_linear_14708_5222)"/>
<mask id="mask0_14708_5222" style="mask-type:alpha" maskUnits="userSpaceOnUse" x="0" y="2" width="14" height="9">
<path d="M0 8.61328C4.9738 7.31175 9.09332 5.24461 12.301 2.22641L13.7912 4.82882L3.61448 10.7527L0 8.61328Z" fill="url(#paint1_linear_14708_5222)"/>
</mask>
<g mask="url(#mask0_14708_5222)">
<g filter="url(#filter0_f_14708_5222)">
<path d="M10.8438 2.3312L14.4697 -0.00390625V16.5332L10.9197 14.6766C12.1916 11.3654 12.8371 7.26936 10.8438 2.3312Z" fill="black" fill-opacity="0.7"/>
</g>
</g>
<path d="M10.8438 2.3351L14.4697 0V16.5371L10.9197 14.6805C12.1916 11.3693 12.8371 7.27327 10.8438 2.3351Z" fill="url(#paint2_linear_14708_5222)"/>
<mask id="mask1_14708_5222" style="mask-type:alpha" maskUnits="userSpaceOnUse" x="0" y="0" width="15" height="17">
<path fill-rule="evenodd" clip-rule="evenodd" d="M14.4756 16.5371L10.9258 14.6797C11.8745 12.2098 12.4732 9.30346 11.8896 5.93652L3.62207 10.75L0.0078125 8.61035C4.41676 7.45658 8.15341 5.70003 11.1797 3.21387C11.0788 2.92395 10.9691 2.63092 10.8496 2.33496L14.4756 0V16.5371Z" fill="url(#paint3_linear_14708_5222)"/>
</mask>
<g mask="url(#mask1_14708_5222)">
<g filter="url(#filter1_f_14708_5222)">
<path d="M6.27344 8.49609C10.9435 9.66365 15.7085 10.0464 20.0938 9.166V12.171H8.34269L6.27344 8.49609Z" fill="black" fill-opacity="0.7"/>
</g>
</g>
<path d="M6.26562 8.49609C10.9357 9.66365 15.7007 10.0464 20.0859 9.166V12.171H8.33488L6.26562 8.49609Z" fill="url(#paint4_linear_14708_5222)"/>
<mask id="mask2_14708_5222" style="mask-type:alpha" maskUnits="userSpaceOnUse" x="6" y="8" width="15" height="5">
<path d="M6.26562 8.49219C10.9357 9.65974 15.7007 10.0425 20.0859 9.16209V12.1671H8.33488L6.26562 8.49219Z" fill="url(#paint5_linear_14708_5222)"/>
</mask>
<g mask="url(#mask2_14708_5222)">
<g filter="url(#filter2_f_14708_5222)">
<path d="M22.3671 15.8622L18.95 19.0586L18.95 2.52147L22.5 4.37807C21.2281 7.68932 20.3738 10.924 22.3671 15.8622Z" fill="black" fill-opacity="0.7"/>
</g>
</g>
<path d="M22.3671 15.8661L18.95 19.0625L18.95 2.52538L22.5 4.38198C21.2281 7.69323 20.3738 10.9279 22.3671 15.8661Z" fill="url(#paint6_linear_14708_5222)"/>
<mask id="mask3_14708_5222" style="mask-type:alpha" maskUnits="userSpaceOnUse" x="18" y="2" width="5" height="18">
<path d="M22.3593 15.8661L18.9422 19.0625L18.9422 2.52538L22.4922 4.38198C21.2203 7.69323 20.366 10.9279 22.3593 15.8661Z" fill="url(#paint7_linear_14708_5222)"/>
</mask>
<g mask="url(#mask3_14708_5222)">
<g filter="url(#filter3_f_14708_5222)">
<path d="M33.3369 11.1404C28.1074 11.8241 22.1465 15.767 18.7381 19.6907L18.7381 15.3949L29.6015 9.07132L33.3369 11.1404Z" fill="black" fill-opacity="0.7"/>
</g>
</g>
<path d="M33.3525 11.1443C28.1231 11.828 22.1621 15.7709 18.7538 19.6946L18.7538 15.3988L29.6171 9.07523L33.3525 11.1443Z" fill="url(#paint8_linear_14708_5222)"/>
<defs>
<filter id="filter0_f_14708_5222" x="10.1765" y="-0.671144" width="4.95948" height="17.8735" filterUnits="userSpaceOnUse" color-interpolation-filters="sRGB">
<feFlood flood-opacity="0" result="BackgroundImageFix"/>
<feBlend mode="normal" in="SourceGraphic" in2="BackgroundImageFix" result="shape"/>
<feGaussianBlur stdDeviation="0.333619" result="effect1_foregroundBlur_14708_5222"/>
</filter>
<filter id="filter1_f_14708_5222" x="5.6062" y="7.82886" width="15.1548" height="5.01026" filterUnits="userSpaceOnUse" color-interpolation-filters="sRGB">
<feFlood flood-opacity="0" result="BackgroundImageFix"/>
<feBlend mode="normal" in="SourceGraphic" in2="BackgroundImageFix" result="shape"/>
<feGaussianBlur stdDeviation="0.333619" result="effect1_foregroundBlur_14708_5222"/>
</filter>
<filter id="filter2_f_14708_5222" x="18.2859" y="1.85229" width="4.88135" height="17.8735" filterUnits="userSpaceOnUse" color-interpolation-filters="sRGB">
<feFlood flood-opacity="0" result="BackgroundImageFix"/>
<feBlend mode="normal" in="SourceGraphic" in2="BackgroundImageFix" result="shape"/>
<feGaussianBlur stdDeviation="0.333619" result="effect1_foregroundBlur_14708_5222"/>
</filter>
<filter id="filter3_f_14708_5222" x="18.0671" y="8.40307" width="15.936" height="11.9556" filterUnits="userSpaceOnUse" color-interpolation-filters="sRGB">
<feFlood flood-opacity="0" result="BackgroundImageFix"/>
<feBlend mode="normal" in="SourceGraphic" in2="BackgroundImageFix" result="shape"/>
<feGaussianBlur stdDeviation="0.333619" result="effect1_foregroundBlur_14708_5222"/>
</filter>
<linearGradient id="paint0_linear_14708_5222" x1="14.4658" y1="1.02986" x2="0.234203" y2="8.49383" gradientUnits="userSpaceOnUse">
<stop stop-color="#E82E8C"/>
<stop offset="1" stop-color="#981FDB"/>
</linearGradient>
<linearGradient id="paint1_linear_14708_5222" x1="14.4658" y1="1.03377" x2="0.234203" y2="8.49774" gradientUnits="userSpaceOnUse">
<stop stop-color="#E82E8C"/>
<stop offset="1" stop-color="#981FDB"/>
</linearGradient>
<linearGradient id="paint2_linear_14708_5222" x1="12.6567" y1="0" x2="12.6567" y2="16.5371" gradientUnits="userSpaceOnUse">
<stop stop-color="#FF6340"/>
<stop offset="1" stop-color="#E88E2E"/>
</linearGradient>
<linearGradient id="paint3_linear_14708_5222" x1="12.6624" y1="0" x2="12.6624" y2="16.5371" gradientUnits="userSpaceOnUse">
<stop stop-color="#FF6340"/>
<stop offset="1" stop-color="#E88E2E"/>
</linearGradient>
<linearGradient id="paint4_linear_14708_5222" x1="6.26563" y1="8.49609" x2="22.5728" y2="8.49609" gradientUnits="userSpaceOnUse">
<stop stop-color="#E88E2E"/>
<stop offset="1" stop-color="#FFCF33"/>
</linearGradient>
<linearGradient id="paint5_linear_14708_5222" x1="6.26563" y1="8.49219" x2="22.5728" y2="8.49219" gradientUnits="userSpaceOnUse">
<stop stop-color="#E88E2E"/>
<stop offset="1" stop-color="#FFCF33"/>
</linearGradient>
<linearGradient id="paint6_linear_14708_5222" x1="20.725" y1="19.0625" x2="20.725" y2="2.52538" gradientUnits="userSpaceOnUse">
<stop stop-color="#E82E8C"/>
<stop offset="1" stop-color="#FF6340"/>
</linearGradient>
<linearGradient id="paint7_linear_14708_5222" x1="20.7172" y1="19.0625" x2="20.7172" y2="2.52538" gradientUnits="userSpaceOnUse">
<stop stop-color="#E82E8C"/>
<stop offset="1" stop-color="#FF6340"/>
</linearGradient>
<linearGradient id="paint8_linear_14708_5222" x1="31.1232" y1="19.1779" x2="22.1659" y2="10.2937" gradientUnits="userSpaceOnUse">
<stop stop-color="#E82E8C"/>
<stop offset="1" stop-color="#981FDB"/>
</linearGradient>
</defs>
</svg>
